<?xml version="1.0" encoding="UTF-8"?>
<svg xmlns="http://www.w3.org/2000/svg" xmlns:xlink="http://www.w3.org/1999/xlink" width="34px" height="20px" viewBox="0 0 33 20" version="1.1">
<g id="surface1">
<path style=" stroke:none;fill-rule:evenodd;fill:rgb(0%,0%,0%);fill-opacity:1;" d="M 9.574219 0 L 23.390625 0 C 28.660156 0 32.96875 4.523438 32.96875 10.054688 C 32.96875 15.582031 28.65625 20.105469 23.390625 20.105469 L 9.574219 20.105469 C 4.308594 20.105469 0 15.582031 0 10.054688 C 0 4.523438 4.308594 0 9.574219 0 Z M 23.121094 2.152344 C 27.464844 2.152344 30.984375 5.75 30.984375 10.183594 C 30.984375 14.617188 27.464844 18.214844 23.121094 18.214844 C 18.78125 18.214844 15.257812 14.617188 15.257812 10.183594 C 15.257812 5.75 18.78125 2.152344 23.121094 2.152344 Z M 23.121094 2.152344 "/>
</g>
</svg>
