<?xml version="1.0" encoding="UTF-8"?>
<svg xmlns="http://www.w3.org/2000/svg" xmlns:xlink="http://www.w3.org/1999/xlink" width="34px" height="20px" viewBox="0 0 33 20" version="1.1">
<g id="surface1">
<path style=" stroke:none;fill-rule:evenodd;fill:rgb(0%,0%,0%);fill-opacity:1;" d="M 23.390625 0 L 9.578125 0 C 4.308594 0 0 4.523438 0 10.054688 C 0 15.582031 4.308594 20.105469 9.578125 20.105469 L 23.390625 20.105469 C 28.660156 20.105469 32.96875 15.582031 32.96875 10.054688 C 32.96875 4.523438 28.660156 0 23.390625 0 Z M 15.925781 1.660156 C 16.394531 1.996094 16.828125 2.375 17.226562 2.78125 L 17.253906 2.808594 C 17.503906 3.0625 17.738281 3.332031 17.957031 3.613281 C 18.183594 3.898438 18.394531 4.199219 18.589844 4.511719 C 19.585938 6.097656 20.167969 7.984375 20.179688 10.007812 C 20.183594 10.027344 20.183594 10.046875 20.183594 10.066406 L 20.183594 10.109375 L 20.179688 10.125 C 20.171875 11.53125 19.890625 12.867188 19.386719 14.085938 C 19.304688 14.285156 19.214844 14.480469 19.117188 14.675781 C 18.628906 15.675781 17.988281 16.578125 17.226562 17.355469 L 17.222656 17.359375 C 17.136719 17.445312 17.042969 17.539062 16.941406 17.636719 C 16.847656 17.726562 16.746094 17.816406 16.648438 17.902344 C 16.429688 18.09375 16.199219 18.273438 15.964844 18.445312 L 23.03125 18.445312 C 24.105469 18.441406 25.132812 18.207031 26.070312 17.789062 C 26.222656 17.71875 26.375 17.644531 26.523438 17.566406 C 27.292969 17.160156 27.992188 16.625 28.597656 15.992188 L 28.597656 15.988281 L 28.617188 15.96875 C 28.816406 15.757812 29.003906 15.539062 29.175781 15.3125 C 29.355469 15.078125 29.527344 14.832031 29.683594 14.578125 C 30.476562 13.28125 30.941406 11.738281 30.949219 10.089844 L 30.945312 10.054688 L 30.945312 10.050781 L 30.949219 10.042969 L 30.949219 10.007812 C 30.945312 9.097656 30.800781 8.222656 30.539062 7.398438 C 30.472656 7.191406 30.398438 6.988281 30.320312 6.796875 C 29.914062 5.789062 29.324219 4.878906 28.597656 4.117188 L 28.59375 4.109375 L 28.589844 4.109375 L 28.589844 4.105469 L 28.585938 4.105469 L 28.578125 4.097656 C 28.382812 3.890625 28.171875 3.695312 27.953125 3.507812 C 27.730469 3.320312 27.496094 3.144531 27.257812 2.980469 C 26.03125 2.152344 24.574219 1.667969 23.019531 1.660156 L 22.980469 1.664062 L 22.972656 1.660156 Z M 9.84375 2.15625 C 5.503906 2.15625 1.980469 5.75 1.980469 10.183594 C 1.980469 14.617188 5.503906 18.214844 9.84375 18.214844 C 14.1875 18.214844 17.710938 14.617188 17.710938 10.183594 C 17.710938 5.75 14.1875 2.15625 9.84375 2.15625 Z M 9.84375 2.15625 "/>
</g>
</svg>
